<?xml version="1.0" encoding="UTF-8"?>
<svg width="0.8cm" height="0.55cm" version="1.1" viewBox="0 0 9.553 6.7961" xmlns="http://www.w3.org/2000/svg" xmlns:cc="http://creativecommons.org/ns#" xmlns:dc="http://purl.org/dc/elements/1.1/" xmlns:rdf="http://www.w3.org/1999/02/22-rdf-syntax-ns#">
<metadata>
<rdf:RDF>
<cc:Work rdf:about="">
<dc:format>image/svg+xml</dc:format>
<dc:type rdf:resource="http://purl.org/dc/dcmitype/StillImage"/>
<dc:title/>
</cc:Work>
</rdf:RDF>
</metadata>
<g transform="translate(-123.95 -167.69)">
<path d="m128.12 174.34-0.60575-0.0121-1.2682-0.0352-0.67112-0.0392a9.152 9.152 0 0 0-0.18471-0.026c-0.39756-0.0533-0.6192-0.1521-0.82847-0.36913-0.19319-0.20042-0.33512-0.58453-0.38536-1.0429-0.0176-0.16058-0.046-0.50367-0.0529-0.64063-3e-3 -0.0599-8e-3 -0.11875-0.0103-0.13074-0.0102-0.0468-0.0129-1.5829-3e-3 -1.7911 0.017-0.36057 0.0543-0.814 0.0843-1.0242 0.0413-0.28956 0.16715-0.64808 0.28568-0.8137 0.0546-0.0763 0.19765-0.21147 0.28438-0.26865 0.23179-0.15276 0.40699-0.19773 0.8934-0.22917 1.2801-0.0828 3.4801-0.10339 5.1117-0.0478 0.61189 0.0208 1.1486 0.0506 1.3466 0.0747 0.31845 0.0387 0.54476 0.14193 0.74856 0.34118 0.0789 0.0772 0.12101 0.13045 0.16693 0.2114 0.0917 0.1616 0.182 0.43062 0.22529 0.67112 0.0423 0.23494 0.0875 0.84449 0.10245 1.3815 9e-3 0.30778 5e-3 1.221-5e-3 1.3117-2e-3 0.0168-6e-3 0.0932-9e-3 0.16994l-9e-3 0.16562c-2e-3 0.0144-6e-3 0.0674-8e-3 0.11766-0.01 0.16569-0.0429 0.51258-0.0618 0.64215-0.0162 0.11152-0.0628 0.30207-0.10347 0.4236-0.0742 0.22164-0.15312 0.36313-0.27033 0.48451-0.19926 0.20628-0.41877 0.31742-0.71507 0.36188-0.2489 0.0374-0.98057 0.0742-2.0221 0.10164-0.32671 9e-3 -1.7895 0.0172-2.0351 0.0119zm0.151-2.2993 1.261-0.64567 0.76954-0.3961c4e-3 -4e-3 -0.33154-0.18039-0.74519-0.39281l-1.6412-0.848c-0.0767-0.0402-0.14237-0.0716-0.14602-0.0697-8e-3 4e-3 -9e-3 2.6085-2e-3 2.6085 3e-3 0 0.22924-0.11531 0.50337-0.25622z" fill="#c4302b" stroke="#c4302b" stroke-width=".29249"/>
<path transform="scale(.26458)" d="m483.44 646.32c0-2.2024 0.0184-4.0044 0.041-4.0044 0.10501 0 7.7161 3.9743 7.6771 4.0088-0.0244 0.0216-1.5458 0.8071-3.3808 1.7456-1.835 0.93845-3.5616 1.8296-3.8369 1.9804l-0.50046 0.27411z" fill-opacity="0" stroke-width=".060662"/>
<path transform="scale(.26458)" d="m483.44 646.32c0-2.2024 0.0184-4.0044 0.041-4.0044 0.10501 0 7.7161 3.9743 7.6771 4.0088-0.0244 0.0216-1.5458 0.8071-3.3808 1.7456-1.835 0.93845-3.5616 1.8296-3.8369 1.9804l-0.50046 0.27411z" fill-opacity="0" stroke-width=".060662"/>
<path transform="scale(.26458)" d="m483.44 646.32c0-2.2024 0.0184-4.0044 0.041-4.0044 0.10501 0 7.7161 3.9743 7.6771 4.0088-0.0244 0.0216-1.5458 0.8071-3.3808 1.7456-1.835 0.93845-3.5616 1.8296-3.8369 1.9804l-0.50046 0.27411z" fill-opacity="0" stroke-width=".060662"/>
<path transform="scale(.26458)" d="m483.44 646.32c0-2.2024 0.0184-4.0044 0.041-4.0044 0.10501 0 7.7161 3.9743 7.6771 4.0088-0.0244 0.0216-1.5458 0.8071-3.3808 1.7456-1.835 0.93845-3.5616 1.8296-3.8369 1.9804l-0.50046 0.27411z" fill-opacity="0" stroke-width=".060662"/>
<path transform="scale(.26458)" d="m483.44 646.32c0-2.2024 0.0184-4.0044 0.041-4.0044 0.10501 0 7.7161 3.9743 7.6771 4.0088-0.0244 0.0216-1.5458 0.8071-3.3808 1.7456-1.835 0.93845-3.5616 1.8296-3.8369 1.9804l-0.50046 0.27411z" fill-opacity="0" stroke-width=".060662"/>
<path transform="scale(.26458)" d="m483.44 646.32c0-2.2024 0.0184-4.0044 0.041-4.0044 0.10501 0 7.7161 3.9743 7.6771 4.0088-0.0244 0.0216-1.5458 0.8071-3.3808 1.7456-1.835 0.93845-3.5616 1.8296-3.8369 1.9804l-0.50046 0.27411z" fill-opacity="0" stroke-width=".060662"/>
<path transform="scale(.26458)" d="m483.44 646.32c0-2.2024 0.0184-4.0044 0.041-4.0044 0.10501 0 7.7161 3.9743 7.6771 4.0088-0.0244 0.0216-1.5458 0.8071-3.3808 1.7456-1.835 0.93845-3.5616 1.8296-3.8369 1.9804l-0.50046 0.27411z" fill-opacity="0" stroke-width=".060662"/>
<path transform="scale(.26458)" d="m483.44 646.32c0-2.2024 0.0184-4.0044 0.041-4.0044 0.10501 0 7.7161 3.9743 7.6771 4.0088-0.0244 0.0216-1.5458 0.8071-3.3808 1.7456-1.835 0.93845-3.5616 1.8296-3.8369 1.9804l-0.50046 0.27411z" fill-opacity="0" stroke-width=".060662"/>
<path transform="matrix(.26458 0 0 .26458 123.95 167.69)" d="m14.952 12.45v-4.0058l0.63515 0.33319c0.34933 0.18325 2.0049 1.0395 3.6791 1.9027 1.6742 0.86323 3.138 1.623 3.253 1.6885l0.20912 0.11897-0.61657 0.32255c-1.1242 0.5881-7.1071 3.6457-7.1337 3.6457-0.01435 0-0.02609-1.8026-0.02609-4.0058z" fill-opacity="0" stroke-width=".047936"/>
<path transform="matrix(.26458 0 0 .26458 123.95 167.69)" d="m14.952 12.45v-4.0058l0.63515 0.33319c0.34933 0.18325 2.0049 1.0395 3.6791 1.9027 1.6742 0.86323 3.138 1.623 3.253 1.6885l0.20912 0.11897-0.61657 0.32255c-1.1242 0.5881-7.1071 3.6457-7.1337 3.6457-0.01435 0-0.02609-1.8026-0.02609-4.0058z" fill-opacity="0" stroke-width=".047936"/>
<path transform="matrix(.26458 0 0 .26458 123.95 167.69)" d="m14.952 12.45v-4.0058l0.63515 0.33319c0.34933 0.18325 2.0049 1.0395 3.6791 1.9027 1.6742 0.86323 3.138 1.623 3.253 1.6885l0.20912 0.11897-0.61657 0.32255c-1.1242 0.5881-7.1071 3.6457-7.1337 3.6457-0.01435 0-0.02609-1.8026-0.02609-4.0058z" fill-opacity="0" stroke-width=".047936"/>
<path transform="matrix(.26458 0 0 .26458 123.95 167.69)" d="m14.952 12.45v-4.0058l0.63515 0.33319c0.34933 0.18325 2.0049 1.0395 3.6791 1.9027 1.6742 0.86323 3.138 1.623 3.253 1.6885l0.20912 0.11897-0.61657 0.32255c-1.1242 0.5881-7.1071 3.6457-7.1337 3.6457-0.01435 0-0.02609-1.8026-0.02609-4.0058z" fill-opacity="0" stroke-width=".047936"/>
<path transform="matrix(.26458 0 0 .26458 123.95 167.69)" d="m14.952 12.45v-4.0058l0.63515 0.33319c0.34933 0.18325 2.0049 1.0395 3.6791 1.9027 1.6742 0.86323 3.138 1.623 3.253 1.6885l0.20912 0.11897-0.61657 0.32255c-1.1242 0.5881-7.1071 3.6457-7.1337 3.6457-0.01435 0-0.02609-1.8026-0.02609-4.0058z" fill-opacity="0" stroke-width=".047936"/>
<path transform="matrix(.26458 0 0 .26458 123.95 167.69)" d="m14.952 12.45v-4.0058l0.63515 0.33319c0.34933 0.18325 2.0049 1.0395 3.6791 1.9027 1.6742 0.86323 3.138 1.623 3.253 1.6885l0.20912 0.11897-0.61657 0.32255c-1.1242 0.5881-7.1071 3.6457-7.1337 3.6457-0.01435 0-0.02609-1.8026-0.02609-4.0058z" fill="#fff0fb" stroke-width=".047936"/>
<path transform="matrix(.26458 0 0 .26458 123.95 167.69)" d="m14.952 12.451v-4.0047l1.1886 0.61323c5.4847 2.8298 6.5751 3.3965 6.5752 3.4175 9.6e-5 0.01318-0.12349 0.09034-0.27465 0.17146-0.58368 0.31324-7.4276 3.8072-7.4575 3.8072-0.01738 0-0.03161-1.8021-0.03161-4.0047z" fill="#fff" stroke-width=".047936"/>
<path transform="matrix(.26458 0 0 .26458 123.95 167.69)" d="m14.952 12.451v-4.005l1.2366 0.63754c4.8211 2.4856 6.5279 3.373 6.528 3.3938 9.6e-5 0.01318-0.1129 0.08429-0.25109 0.15802-0.6297 0.33596-7.4536 3.8206-7.4818 3.8206-0.01746 0-0.03174-1.8023-0.03174-4.005z" fill="#fff" stroke-width=".047936"/>
<path transform="matrix(.26458 0 0 .26458 123.95 167.69)" d="m14.952 12.453v-4.0032l0.39547 0.19856c0.32842 0.16489 3.7423 1.9275 6.662 3.4395 0.38829 0.20109 0.70646 0.37842 0.70705 0.39407 5.94e-4 0.01565-0.54359 0.30955-1.2093 0.65312-2.3201 1.1974-6.4914 3.3211-6.5232 3.3211-0.01762 0-0.03203-1.8014-0.03203-4.0032z" fill="#fff" stroke-width=".047936"/>
<path transform="matrix(.26458 0 0 .26458 123.95 167.69)" d="m14.952 12.449c0-2.2036 0.01746-3.9994 0.03881-3.9906 0.04355 0.01793 6.7149 3.4651 7.3305 3.7878 0.21706 0.11377 0.39502 0.21934 0.39547 0.2346 0.0013 0.04476-7.6426 3.9749-7.731 3.9749-0.01857 0-0.03376-1.803-0.03376-4.0066z" fill="#fff" stroke-width=".047936"/>
</g>
</svg>
